<svg width="32" height="32" viewBox="0 0 32 32" fill="none" xmlns="http://www.w3.org/2000/svg">
<circle cx="16" cy="16" r="16" fill="#FFBFBF"/>
<path fill-rule="evenodd" clip-rule="evenodd" d="M13.4749 9.84073H7.83924C7.61833 9.84073 7.43924 10.0198 7.43924 10.2407V10.6468C7.43924 10.8677 7.61833 11.0468 7.83924 11.0468H16.6916C16.4684 12.3461 15.7855 13.5492 15.0797 14.4915C14.6752 15.0317 14.2748 15.4706 13.9761 15.7738C13.9679 15.7821 13.9597 15.7904 13.9517 15.7985C13.7144 15.4908 13.4017 15.0767 13.0899 14.6388C12.7725 14.1931 12.5197 13.8763 12.2361 13.3394C12.1443 13.1658 12.0322 12.9204 11.9676 12.776C11.9352 12.7035 11.8635 12.6565 11.7842 12.6562L10.8484 12.6532C10.7038 12.6527 10.6066 12.8013 10.6669 12.9328C10.9291 13.5051 11.0811 13.7512 11.1918 13.9428C11.4471 14.3845 11.7814 14.8803 12.1075 15.3383C12.4351 15.7985 12.7618 16.2306 13.006 16.5471C13.0248 16.5714 13.0431 16.5951 13.0609 16.618L9.19294 20.0636C8.92785 20.2998 8.92463 20.7132 9.18601 20.9534L9.27394 21.0342C9.50458 21.2462 9.85948 21.2451 10.0888 21.0316L13.8571 17.5239C14.1088 17.7604 14.4839 18.0882 15.0215 18.5052C15.397 18.7966 15.8979 19.1047 16.2886 19.3324C16.4236 19.4111 16.6442 19.5337 16.8115 19.626C16.9126 19.6818 17.0395 19.6405 17.0886 19.5361C17.2105 19.2771 17.3478 18.9852 17.4322 18.8059C17.4771 18.7104 17.44 18.5965 17.3477 18.5453C17.2058 18.4667 17.0232 18.3646 16.8959 18.2904C16.5135 18.0676 16.0701 17.7924 15.7607 17.5523C15.2984 17.1937 14.9712 16.9112 14.7493 16.7066C14.777 16.679 14.8057 16.6502 14.8352 16.6202C15.1627 16.2877 15.6008 15.8076 16.045 15.2145C16.8336 14.1616 17.6805 12.7012 17.9121 11.0468H19.7633C19.9843 11.0468 20.1634 10.8677 20.1634 10.6468V10.2407C20.1634 10.0198 19.9843 9.84073 19.7634 9.84073H14.6809V8.23085H13.4749V9.84073Z" fill="url(#paint0_radial_0_88)"/>
<path fill-rule="evenodd" clip-rule="evenodd" d="M20.1073 14.1836L21.2335 14.1739L25 23.7594H23.7578L22.7777 21.4013H18.7019L17.8514 23.7691H16.5313L20.1073 14.1836ZM19.1518 20.1953H22.3038L20.6869 16.0804L19.1518 20.1953Z" fill="url(#paint1_radial_0_88)"/>
<defs>
<radialGradient id="paint0_radial_0_88" cx="0" cy="0" r="1" gradientUnits="userSpaceOnUse" gradientTransform="translate(19.0604 6.87964) rotate(126.005) scale(20.1121 25.4155)">
<stop stop-color="#212225"/>
<stop offset="1" stop-color="#1F2025"/>
</radialGradient>
<radialGradient id="paint1_radial_0_88" cx="0" cy="0" r="1" gradientUnits="userSpaceOnUse" gradientTransform="translate(24.266 13.1901) rotate(123.595) scale(14.2212 17.4175)">
<stop stop-color="#212225"/>
<stop offset="1" stop-color="#1F2025"/>
</radialGradient>
</defs>
</svg>
