<svg width="32" height="32" viewBox="0 0 32 32" fill="none" xmlns="http://www.w3.org/2000/svg">
<circle cx="16" cy="16" r="16" fill="#CBF3FF"/>
<path d="M24.6829 18.1795L15.1036 14.0171C16.0415 12.9281 16.6283 11.593 16.7948 10.1641H17.3711C17.6624 10.1641 17.8985 9.92795 17.8985 9.63671V7.52734C17.8985 7.23611 17.6624 7 17.3711 7H15.2618C14.9705 7 14.7344 7.23611 14.7344 7.52734V9.63671C14.7344 9.92795 14.9705 10.1641 15.2618 10.1641H15.7315C15.544 11.5343 14.9019 12.7972 13.89 13.7657C12.8676 14.7441 11.5605 15.3314 10.1641 15.4499V15.1242C10.1641 14.833 9.92799 14.5969 9.63675 14.5969H7.52737C7.23614 14.5969 7.00003 14.833 7.00003 15.1242V17.2336C7.00003 17.5248 7.23614 17.7609 7.52737 17.7609H9.63675C9.92799 17.7609 10.1641 17.5248 10.1641 17.2336V16.5083C11.5623 16.4072 12.8874 15.9047 13.9976 15.0587L18.1796 24.6828C18.2636 24.8762 18.4541 25 18.6631 25C18.8959 25 19.0999 24.8478 19.1675 24.6269L20.1248 21.4969C20.3261 20.839 20.839 20.326 21.4969 20.1248L24.6269 19.1675C24.8381 19.1029 24.9867 18.9135 24.9992 18.693C25.0117 18.4725 24.8854 18.2676 24.6829 18.1795ZM15.7891 8.05469H16.8438V9.10937H15.7891V8.05469ZM9.10941 16.7062H8.05472V15.6515H9.10941V16.7062ZM21.1885 19.1162C20.1948 19.4201 19.4202 20.1947 19.1163 21.1884L18.5771 22.9512L15.216 15.2159L22.9513 18.5771L21.1885 19.1162Z" fill="url(#paint0_radial_0_84)"/>
<defs>
<radialGradient id="paint0_radial_0_84" cx="0" cy="0" r="1" gradientUnits="userSpaceOnUse" gradientTransform="translate(23.4398 5.15449) rotate(126.967) scale(27.8127 35.51)">
<stop stop-color="#212225"/>
<stop offset="1" stop-color="#1F2025"/>
</radialGradient>
</defs>
</svg>
