<svg width="246" height="140" viewBox="0 0 246 140" fill="none" xmlns="http://www.w3.org/2000/svg">
<rect width="246" height="140" rx="24" fill="url(#paint0_radial_0_87)"/>
<circle cx="40" cy="40" r="16" fill="#FFBFBF"/>
<path fill-rule="evenodd" clip-rule="evenodd" d="M37.4749 33.8407H31.8392C31.6183 33.8407 31.4392 34.0198 31.4392 34.2407V34.6468C31.4392 34.8677 31.6183 35.0468 31.8392 35.0468H40.6916C40.4684 36.3461 39.7855 37.5492 39.0797 38.4915C38.6752 39.0317 38.2748 39.4706 37.9761 39.7738C37.9679 39.7821 37.9597 39.7904 37.9517 39.7985C37.7144 39.4908 37.4017 39.0767 37.0899 38.6388C36.7725 38.1931 36.5197 37.8763 36.2361 37.3394C36.1443 37.1658 36.0322 36.9204 35.9676 36.776C35.9352 36.7035 35.8635 36.6565 35.7842 36.6562L34.8484 36.6532C34.7038 36.6527 34.6066 36.8013 34.6669 36.9328C34.9291 37.5051 35.0811 37.7512 35.1918 37.9428C35.4471 38.3845 35.7814 38.8803 36.1075 39.3383C36.4351 39.7985 36.7618 40.2306 37.006 40.5471C37.0248 40.5714 37.0431 40.5951 37.0609 40.618L33.1929 44.0636C32.9279 44.2998 32.9246 44.7132 33.186 44.9534L33.2739 45.0342C33.5046 45.2462 33.8595 45.2451 34.0888 45.0316L37.8571 41.5239C38.1088 41.7604 38.4839 42.0882 39.0215 42.5052C39.397 42.7966 39.8979 43.1047 40.2886 43.3324C40.4236 43.4111 40.6442 43.5337 40.8115 43.626C40.9126 43.6818 41.0395 43.6405 41.0886 43.5361C41.2105 43.2771 41.3478 42.9852 41.4322 42.8059C41.4771 42.7104 41.44 42.5965 41.3477 42.5453C41.2058 42.4667 41.0232 42.3646 40.8959 42.2904C40.5135 42.0676 40.0701 41.7924 39.7607 41.5523C39.2984 41.1937 38.9712 40.9112 38.7493 40.7066C38.777 40.679 38.8057 40.6502 38.8352 40.6202C39.1627 40.2877 39.6008 39.8076 40.045 39.2145C40.8336 38.1616 41.6805 36.7012 41.9121 35.0468H43.7633C43.9843 35.0468 44.1634 34.8677 44.1634 34.6468V34.2407C44.1634 34.0198 43.9843 33.8407 43.7634 33.8407H38.6809V32.2309H37.4749V33.8407Z" fill="url(#paint1_radial_0_87)"/>
<path fill-rule="evenodd" clip-rule="evenodd" d="M44.1073 38.1836L45.2335 38.1739L49 47.7594H47.7578L46.7777 45.4013H42.7019L41.8514 47.7691H40.5313L44.1073 38.1836ZM43.1518 44.1953H46.3038L44.6869 40.0804L43.1518 44.1953Z" fill="url(#paint2_radial_0_87)"/>
<path opacity="0.84" d="M74.016 32.524V35.32H77.064V36.22H74.016V39.1H77.424V40H72.924V31.624H77.424V32.524H74.016ZM82.8803 33.304C83.6803 33.304 84.3283 33.548 84.8243 34.036C85.3203 34.516 85.5683 35.212 85.5683 36.124V40H84.4883V36.28C84.4883 35.624 84.3243 35.124 83.9963 34.78C83.6683 34.428 83.2203 34.252 82.6523 34.252C82.0763 34.252 81.6163 34.432 81.2723 34.792C80.9363 35.152 80.7683 35.676 80.7683 36.364V40H79.6763V33.424H80.7683V34.36C80.9843 34.024 81.2763 33.764 81.6443 33.58C82.0203 33.396 82.4323 33.304 82.8803 33.304ZM90.6641 33.316C91.2321 33.316 91.7281 33.44 92.1521 33.688C92.5841 33.936 92.9041 34.248 93.1121 34.624V33.424H94.2161V40.144C94.2161 40.744 94.0881 41.276 93.8321 41.74C93.5761 42.212 93.2081 42.58 92.7281 42.844C92.2561 43.108 91.7041 43.24 91.0721 43.24C90.2081 43.24 89.4881 43.036 88.9121 42.628C88.3361 42.22 87.9961 41.664 87.8921 40.96H88.9721C89.0921 41.36 89.3401 41.68 89.7161 41.92C90.0921 42.168 90.5441 42.292 91.0721 42.292C91.6721 42.292 92.1601 42.104 92.5361 41.728C92.9201 41.352 93.1121 40.824 93.1121 40.144V38.764C92.8961 39.148 92.5761 39.468 92.1521 39.724C91.7281 39.98 91.2321 40.108 90.6641 40.108C90.0801 40.108 89.5481 39.964 89.0681 39.676C88.5961 39.388 88.2241 38.984 87.9521 38.464C87.6801 37.944 87.5441 37.352 87.5441 36.688C87.5441 36.016 87.6801 35.428 87.9521 34.924C88.2241 34.412 88.5961 34.016 89.0681 33.736C89.5481 33.456 90.0801 33.316 90.6641 33.316ZM93.1121 36.7C93.1121 36.204 93.0121 35.772 92.8121 35.404C92.6121 35.036 92.3401 34.756 91.9961 34.564C91.6601 34.364 91.2881 34.264 90.8801 34.264C90.4721 34.264 90.1001 34.36 89.7641 34.552C89.4281 34.744 89.1601 35.024 88.9601 35.392C88.7601 35.76 88.6601 36.192 88.6601 36.688C88.6601 37.192 88.7601 37.632 88.9601 38.008C89.1601 38.376 89.4281 38.66 89.7641 38.86C90.1001 39.052 90.4721 39.148 90.8801 39.148C91.2881 39.148 91.6601 39.052 91.9961 38.86C92.3401 38.66 92.6121 38.376 92.8121 38.008C93.0121 37.632 93.1121 37.196 93.1121 36.7ZM97.7535 31.12V40H96.6615V31.12H97.7535ZM100.779 32.356C100.571 32.356 100.395 32.284 100.251 32.14C100.107 31.996 100.035 31.82 100.035 31.612C100.035 31.404 100.107 31.228 100.251 31.084C100.395 30.94 100.571 30.868 100.779 30.868C100.979 30.868 101.147 30.94 101.283 31.084C101.427 31.228 101.499 31.404 101.499 31.612C101.499 31.82 101.427 31.996 101.283 32.14C101.147 32.284 100.979 32.356 100.779 32.356ZM101.307 33.424V40H100.215V33.424H101.307ZM106.096 40.108C105.592 40.108 105.14 40.024 104.74 39.856C104.34 39.68 104.024 39.44 103.792 39.136C103.56 38.824 103.432 38.468 103.408 38.068H104.536C104.568 38.396 104.72 38.664 104.992 38.872C105.272 39.08 105.636 39.184 106.084 39.184C106.5 39.184 106.828 39.092 107.068 38.908C107.308 38.724 107.428 38.492 107.428 38.212C107.428 37.924 107.3 37.712 107.044 37.576C106.788 37.432 106.392 37.292 105.856 37.156C105.368 37.028 104.968 36.9 104.656 36.772C104.352 36.636 104.088 36.44 103.864 36.184C103.648 35.92 103.54 35.576 103.54 35.152C103.54 34.816 103.64 34.508 103.84 34.228C104.04 33.948 104.324 33.728 104.692 33.568C105.06 33.4 105.48 33.316 105.952 33.316C106.68 33.316 107.268 33.5 107.716 33.868C108.164 34.236 108.404 34.74 108.436 35.38H107.344C107.32 35.036 107.18 34.76 106.924 34.552C106.676 34.344 106.34 34.24 105.916 34.24C105.524 34.24 105.212 34.324 104.98 34.492C104.748 34.66 104.632 34.88 104.632 35.152C104.632 35.368 104.7 35.548 104.836 35.692C104.98 35.828 105.156 35.94 105.364 36.028C105.58 36.108 105.876 36.2 106.252 36.304C106.724 36.432 107.108 36.56 107.404 36.688C107.7 36.808 107.952 36.992 108.16 37.24C108.376 37.488 108.488 37.812 108.496 38.212C108.496 38.572 108.396 38.896 108.196 39.184C107.996 39.472 107.712 39.7 107.344 39.868C106.984 40.028 106.568 40.108 106.096 40.108ZM113.901 33.304C114.397 33.304 114.845 33.412 115.245 33.628C115.645 33.836 115.957 34.152 116.181 34.576C116.413 35 116.529 35.516 116.529 36.124V40H115.449V36.28C115.449 35.624 115.285 35.124 114.957 34.78C114.629 34.428 114.181 34.252 113.613 34.252C113.037 34.252 112.577 34.432 112.233 34.792C111.897 35.152 111.729 35.676 111.729 36.364V40H110.637V31.12H111.729V34.36C111.945 34.024 112.241 33.764 112.617 33.58C113.001 33.396 113.429 33.304 113.901 33.304ZM126.9 35.692C127.204 35.74 127.48 35.864 127.728 36.064C127.984 36.264 128.184 36.512 128.328 36.808C128.48 37.104 128.556 37.42 128.556 37.756C128.556 38.18 128.448 38.564 128.232 38.908C128.016 39.244 127.7 39.512 127.284 39.712C126.876 39.904 126.392 40 125.832 40H122.712V31.636H125.712C126.28 31.636 126.764 31.732 127.164 31.924C127.564 32.108 127.864 32.36 128.064 32.68C128.264 33 128.364 33.36 128.364 33.76C128.364 34.256 128.228 34.668 127.956 34.996C127.692 35.316 127.34 35.548 126.9 35.692ZM123.804 35.248H125.64C126.152 35.248 126.548 35.128 126.828 34.888C127.108 34.648 127.248 34.316 127.248 33.892C127.248 33.468 127.108 33.136 126.828 32.896C126.548 32.656 126.144 32.536 125.616 32.536H123.804V35.248ZM125.736 39.1C126.28 39.1 126.704 38.972 127.008 38.716C127.312 38.46 127.464 38.104 127.464 37.648C127.464 37.184 127.304 36.82 126.984 36.556C126.664 36.284 126.236 36.148 125.7 36.148H123.804V39.1H125.736ZM130.204 32.32V31.324H132.46V40H131.356V32.32H130.204ZM72.516 58.812C72.516 57.996 72.7 57.264 73.068 56.616C73.436 55.96 73.936 55.448 74.568 55.08C75.208 54.712 75.916 54.528 76.692 54.528C77.604 54.528 78.4 54.748 79.08 55.188C79.76 55.628 80.256 56.252 80.568 57.06H79.26C79.028 56.556 78.692 56.168 78.252 55.896C77.82 55.624 77.3 55.488 76.692 55.488C76.108 55.488 75.584 55.624 75.12 55.896C74.656 56.168 74.292 56.556 74.028 57.06C73.764 57.556 73.632 58.14 73.632 58.812C73.632 59.476 73.764 60.06 74.028 60.564C74.292 61.06 74.656 61.444 75.12 61.716C75.584 61.988 76.108 62.124 76.692 62.124C77.3 62.124 77.82 61.992 78.252 61.728C78.692 61.456 79.028 61.068 79.26 60.564H80.568C80.256 61.364 79.76 61.984 79.08 62.424C78.4 62.856 77.604 63.072 76.692 63.072C75.916 63.072 75.208 62.892 74.568 62.532C73.936 62.164 73.436 61.656 73.068 61.008C72.7 60.36 72.516 59.628 72.516 58.812ZM83.6095 62.1H86.8375V63H82.3615V62.1L85.5535 57.312H82.3855V56.424H86.8135V57.312L83.6095 62.1ZM94.8545 59.46C94.8545 59.668 94.8425 59.888 94.8185 60.12H89.5625C89.6025 60.768 89.8225 61.276 90.2225 61.644C90.6305 62.004 91.1225 62.184 91.6985 62.184C92.1705 62.184 92.5625 62.076 92.8745 61.86C93.1945 61.636 93.4185 61.34 93.5465 60.972H94.7225C94.5465 61.604 94.1945 62.12 93.6665 62.52C93.1385 62.912 92.4825 63.108 91.6985 63.108C91.0745 63.108 90.5145 62.968 90.0185 62.688C89.5305 62.408 89.1465 62.012 88.8665 61.5C88.5865 60.98 88.4465 60.38 88.4465 59.7C88.4465 59.02 88.5825 58.424 88.8545 57.912C89.1265 57.4 89.5065 57.008 89.9945 56.736C90.4905 56.456 91.0585 56.316 91.6985 56.316C92.3225 56.316 92.8745 56.452 93.3545 56.724C93.8345 56.996 94.2025 57.372 94.4585 57.852C94.7225 58.324 94.8545 58.86 94.8545 59.46ZM93.7265 59.232C93.7265 58.816 93.6345 58.46 93.4505 58.164C93.2665 57.86 93.0145 57.632 92.6945 57.48C92.3825 57.32 92.0345 57.24 91.6505 57.24C91.0985 57.24 90.6265 57.416 90.2345 57.768C89.8505 58.12 89.6305 58.608 89.5745 59.232H93.7265ZM96.4879 59.7C96.4879 59.02 96.6239 58.428 96.8959 57.924C97.1679 57.412 97.5439 57.016 98.0239 56.736C98.5119 56.456 99.0679 56.316 99.6919 56.316C100.5 56.316 101.164 56.512 101.684 56.904C102.212 57.296 102.56 57.84 102.728 58.536H101.552C101.44 58.136 101.22 57.82 100.892 57.588C100.572 57.356 100.172 57.24 99.6919 57.24C99.0679 57.24 98.5639 57.456 98.1799 57.888C97.7959 58.312 97.6039 58.916 97.6039 59.7C97.6039 60.492 97.7959 61.104 98.1799 61.536C98.5639 61.968 99.0679 62.184 99.6919 62.184C100.172 62.184 100.572 62.072 100.892 61.848C101.212 61.624 101.432 61.304 101.552 60.888H102.728C102.552 61.56 102.2 62.1 101.672 62.508C101.144 62.908 100.484 63.108 99.6919 63.108C99.0679 63.108 98.5119 62.968 98.0239 62.688C97.5439 62.408 97.1679 62.012 96.8959 61.5C96.6239 60.988 96.4879 60.388 96.4879 59.7ZM108.049 56.304C108.545 56.304 108.993 56.412 109.393 56.628C109.793 56.836 110.105 57.152 110.329 57.576C110.561 58 110.677 58.516 110.677 59.124V63H109.597V59.28C109.597 58.624 109.433 58.124 109.105 57.78C108.777 57.428 108.329 57.252 107.761 57.252C107.185 57.252 106.725 57.432 106.381 57.792C106.045 58.152 105.877 58.676 105.877 59.364V63H104.785V54.12H105.877V57.36C106.093 57.024 106.389 56.764 106.765 56.58C107.149 56.396 107.577 56.304 108.049 56.304ZM121.048 58.692C121.352 58.74 121.628 58.864 121.876 59.064C122.132 59.264 122.332 59.512 122.476 59.808C122.628 60.104 122.704 60.42 122.704 60.756C122.704 61.18 122.596 61.564 122.38 61.908C122.164 62.244 121.848 62.512 121.432 62.712C121.024 62.904 120.54 63 119.98 63H116.86V54.636H119.86C120.428 54.636 120.912 54.732 121.312 54.924C121.712 55.108 122.012 55.36 122.212 55.68C122.412 56 122.512 56.36 122.512 56.76C122.512 57.256 122.376 57.668 122.104 57.996C121.84 58.316 121.488 58.548 121.048 58.692ZM117.952 58.248H119.788C120.3 58.248 120.696 58.128 120.976 57.888C121.256 57.648 121.396 57.316 121.396 56.892C121.396 56.468 121.256 56.136 120.976 55.896C120.696 55.656 120.292 55.536 119.764 55.536H117.952V58.248ZM119.884 62.1C120.428 62.1 120.852 61.972 121.156 61.716C121.46 61.46 121.612 61.104 121.612 60.648C121.612 60.184 121.452 59.82 121.132 59.556C120.812 59.284 120.384 59.148 119.848 59.148H117.952V62.1H119.884ZM124.507 62.124C125.523 61.308 126.319 60.64 126.895 60.12C127.471 59.592 127.955 59.044 128.347 58.476C128.747 57.9 128.947 57.336 128.947 56.784C128.947 56.264 128.819 55.856 128.563 55.56C128.315 55.256 127.911 55.104 127.351 55.104C126.807 55.104 126.383 55.276 126.079 55.62C125.783 55.956 125.623 56.408 125.599 56.976H124.543C124.575 56.08 124.847 55.388 125.359 54.9C125.871 54.412 126.531 54.168 127.339 54.168C128.163 54.168 128.815 54.396 129.295 54.852C129.783 55.308 130.027 55.936 130.027 56.736C130.027 57.4 129.827 58.048 129.427 58.68C129.035 59.304 128.587 59.856 128.083 60.336C127.579 60.808 126.935 61.36 126.151 61.992H130.279V62.904H124.507V62.124ZM73.992 77.636V82.928C73.992 83.672 74.172 84.224 74.532 84.584C74.9 84.944 75.408 85.124 76.056 85.124C76.696 85.124 77.196 84.944 77.556 84.584C77.924 84.224 78.108 83.672 78.108 82.928V77.636H79.2V82.916C79.2 83.612 79.06 84.2 78.78 84.68C78.5 85.152 78.12 85.504 77.64 85.736C77.168 85.968 76.636 86.084 76.044 86.084C75.452 86.084 74.916 85.968 74.436 85.736C73.964 85.504 73.588 85.152 73.308 84.68C73.036 84.2 72.9 83.612 72.9 82.916V77.636H73.992ZM85.2937 86L82.7137 83.096V86H81.6217V77.12H82.7137V82.34L85.2457 79.424H86.7697L83.6737 82.7L86.7817 86H85.2937ZM89.4894 80.492C89.6814 80.116 89.9534 79.824 90.3054 79.616C90.6654 79.408 91.1014 79.304 91.6134 79.304V80.432H91.3254C90.1014 80.432 89.4894 81.096 89.4894 82.424V86H88.3974V79.424H89.4894V80.492ZM93.066 82.688C93.066 82.016 93.202 81.428 93.474 80.924C93.746 80.412 94.118 80.016 94.59 79.736C95.07 79.456 95.602 79.316 96.186 79.316C96.762 79.316 97.262 79.44 97.686 79.688C98.11 79.936 98.426 80.248 98.634 80.624V79.424H99.738V86H98.634V84.776C98.418 85.16 98.094 85.48 97.662 85.736C97.238 85.984 96.742 86.108 96.174 86.108C95.59 86.108 95.062 85.964 94.59 85.676C94.118 85.388 93.746 84.984 93.474 84.464C93.202 83.944 93.066 83.352 93.066 82.688ZM98.634 82.7C98.634 82.204 98.534 81.772 98.334 81.404C98.134 81.036 97.862 80.756 97.518 80.564C97.182 80.364 96.81 80.264 96.402 80.264C95.994 80.264 95.622 80.36 95.286 80.552C94.95 80.744 94.682 81.024 94.482 81.392C94.282 81.76 94.182 82.192 94.182 82.688C94.182 83.192 94.282 83.632 94.482 84.008C94.682 84.376 94.95 84.66 95.286 84.86C95.622 85.052 95.994 85.148 96.402 85.148C96.81 85.148 97.182 85.052 97.518 84.86C97.862 84.66 98.134 84.376 98.334 84.008C98.534 83.632 98.634 83.196 98.634 82.7ZM102.747 78.356C102.539 78.356 102.363 78.284 102.219 78.14C102.075 77.996 102.003 77.82 102.003 77.612C102.003 77.404 102.075 77.228 102.219 77.084C102.363 76.94 102.539 76.868 102.747 76.868C102.947 76.868 103.115 76.94 103.251 77.084C103.395 77.228 103.467 77.404 103.467 77.612C103.467 77.82 103.395 77.996 103.251 78.14C103.115 78.284 102.947 78.356 102.747 78.356ZM103.275 79.424V86H102.183V79.424H103.275ZM108.941 79.304C109.741 79.304 110.389 79.548 110.885 80.036C111.381 80.516 111.629 81.212 111.629 82.124V86H110.549V82.28C110.549 81.624 110.385 81.124 110.057 80.78C109.729 80.428 109.281 80.252 108.713 80.252C108.137 80.252 107.677 80.432 107.333 80.792C106.997 81.152 106.829 81.676 106.829 82.364V86H105.737V79.424H106.829V80.36C107.045 80.024 107.337 79.764 107.705 79.58C108.081 79.396 108.493 79.304 108.941 79.304ZM114.576 78.356C114.368 78.356 114.192 78.284 114.048 78.14C113.904 77.996 113.832 77.82 113.832 77.612C113.832 77.404 113.904 77.228 114.048 77.084C114.192 76.94 114.368 76.868 114.576 76.868C114.776 76.868 114.944 76.94 115.08 77.084C115.224 77.228 115.296 77.404 115.296 77.612C115.296 77.82 115.224 77.996 115.08 78.14C114.944 78.284 114.776 78.356 114.576 78.356ZM115.104 79.424V86H114.012V79.424H115.104ZM117.157 82.688C117.157 82.016 117.293 81.428 117.565 80.924C117.837 80.412 118.209 80.016 118.681 79.736C119.161 79.456 119.693 79.316 120.277 79.316C120.853 79.316 121.353 79.44 121.777 79.688C122.201 79.936 122.517 80.248 122.725 80.624V79.424H123.829V86H122.725V84.776C122.509 85.16 122.185 85.48 121.753 85.736C121.329 85.984 120.833 86.108 120.265 86.108C119.681 86.108 119.153 85.964 118.681 85.676C118.209 85.388 117.837 84.984 117.565 84.464C117.293 83.944 117.157 83.352 117.157 82.688ZM122.725 82.7C122.725 82.204 122.625 81.772 122.425 81.404C122.225 81.036 121.953 80.756 121.609 80.564C121.273 80.364 120.901 80.264 120.493 80.264C120.085 80.264 119.713 80.36 119.377 80.552C119.041 80.744 118.773 81.024 118.573 81.392C118.373 81.76 118.273 82.192 118.273 82.688C118.273 83.192 118.373 83.632 118.573 84.008C118.773 84.376 119.041 84.66 119.377 84.86C119.713 85.052 120.085 85.148 120.493 85.148C120.901 85.148 121.273 85.052 121.609 84.86C121.953 84.66 122.225 84.376 122.425 84.008C122.625 83.632 122.725 83.196 122.725 82.7ZM129.479 79.304C130.279 79.304 130.927 79.548 131.423 80.036C131.919 80.516 132.167 81.212 132.167 82.124V86H131.087V82.28C131.087 81.624 130.923 81.124 130.595 80.78C130.267 80.428 129.819 80.252 129.251 80.252C128.675 80.252 128.215 80.432 127.871 80.792C127.535 81.152 127.367 81.676 127.367 82.364V86H126.275V79.424H127.367V80.36C127.583 80.024 127.875 79.764 128.243 79.58C128.619 79.396 129.031 79.304 129.479 79.304ZM137.942 81.812C137.942 80.996 138.126 80.264 138.494 79.616C138.862 78.96 139.362 78.448 139.994 78.08C140.634 77.712 141.342 77.528 142.118 77.528C143.03 77.528 143.826 77.748 144.506 78.188C145.186 78.628 145.682 79.252 145.994 80.06H144.686C144.454 79.556 144.118 79.168 143.678 78.896C143.246 78.624 142.726 78.488 142.118 78.488C141.534 78.488 141.01 78.624 140.546 78.896C140.082 79.168 139.718 79.556 139.454 80.06C139.19 80.556 139.058 81.14 139.058 81.812C139.058 82.476 139.19 83.06 139.454 83.564C139.718 84.06 140.082 84.444 140.546 84.716C141.01 84.988 141.534 85.124 142.118 85.124C142.726 85.124 143.246 84.992 143.678 84.728C144.118 84.456 144.454 84.068 144.686 83.564H145.994C145.682 84.364 145.186 84.984 144.506 85.424C143.826 85.856 143.03 86.072 142.118 86.072C141.342 86.072 140.634 85.892 139.994 85.532C139.362 85.164 138.862 84.656 138.494 84.008C138.126 83.36 137.942 82.628 137.942 81.812ZM147.907 85.124C148.923 84.308 149.719 83.64 150.295 83.12C150.871 82.592 151.355 82.044 151.747 81.476C152.147 80.9 152.347 80.336 152.347 79.784C152.347 79.264 152.219 78.856 151.963 78.56C151.715 78.256 151.311 78.104 150.751 78.104C150.207 78.104 149.783 78.276 149.479 78.62C149.183 78.956 149.023 79.408 148.999 79.976H147.943C147.975 79.08 148.247 78.388 148.759 77.9C149.271 77.412 149.931 77.168 150.739 77.168C151.563 77.168 152.215 77.396 152.695 77.852C153.183 78.308 153.427 78.936 153.427 79.736C153.427 80.4 153.227 81.048 152.827 81.68C152.435 82.304 151.987 82.856 151.483 83.336C150.979 83.808 150.335 84.36 149.551 84.992H153.679V85.904H147.907V85.124ZM77.328 109L75.336 105.58H74.016V109H72.924V100.636H75.624C76.256 100.636 76.788 100.744 77.22 100.96C77.66 101.176 77.988 101.468 78.204 101.836C78.42 102.204 78.528 102.624 78.528 103.096C78.528 103.672 78.36 104.18 78.024 104.62C77.696 105.06 77.2 105.352 76.536 105.496L78.636 109H77.328ZM74.016 104.704H75.624C76.216 104.704 76.66 104.56 76.956 104.272C77.252 103.976 77.4 103.584 77.4 103.096C77.4 102.6 77.252 102.216 76.956 101.944C76.668 101.672 76.224 101.536 75.624 101.536H74.016V104.704ZM86.6568 102.424V109H85.5648V108.028C85.3568 108.364 85.0648 108.628 84.6888 108.82C84.3208 109.004 83.9128 109.096 83.4648 109.096C82.9528 109.096 82.4928 108.992 82.0848 108.784C81.6768 108.568 81.3528 108.248 81.1128 107.824C80.8808 107.4 80.7648 106.884 80.7648 106.276V102.424H81.8448V106.132C81.8448 106.78 82.0088 107.28 82.3368 107.632C82.6648 107.976 83.1128 108.148 83.6808 108.148C84.2648 108.148 84.7248 107.968 85.0608 107.608C85.3968 107.248 85.5648 106.724 85.5648 106.036V102.424H86.6568ZM91.4286 109.108C90.9246 109.108 90.4726 109.024 90.0726 108.856C89.6726 108.68 89.3566 108.44 89.1246 108.136C88.8926 107.824 88.7646 107.468 88.7406 107.068H89.8686C89.9006 107.396 90.0526 107.664 90.3246 107.872C90.6046 108.08 90.9686 108.184 91.4166 108.184C91.8326 108.184 92.1606 108.092 92.4006 107.908C92.6406 107.724 92.7606 107.492 92.7606 107.212C92.7606 106.924 92.6326 106.712 92.3766 106.576C92.1206 106.432 91.7246 106.292 91.1886 106.156C90.7006 106.028 90.3006 105.9 89.9886 105.772C89.6846 105.636 89.4206 105.44 89.1966 105.184C88.9806 104.92 88.8726 104.576 88.8726 104.152C88.8726 103.816 88.9726 103.508 89.1726 103.228C89.3726 102.948 89.6566 102.728 90.0246 102.568C90.3926 102.4 90.8126 102.316 91.2846 102.316C92.0126 102.316 92.6006 102.5 93.0486 102.868C93.4966 103.236 93.7366 103.74 93.7686 104.38H92.6766C92.6526 104.036 92.5126 103.76 92.2566 103.552C92.0086 103.344 91.6726 103.24 91.2486 103.24C90.8566 103.24 90.5446 103.324 90.3126 103.492C90.0806 103.66 89.9646 103.88 89.9646 104.152C89.9646 104.368 90.0326 104.548 90.1686 104.692C90.3126 104.828 90.4886 104.94 90.6966 105.028C90.9126 105.108 91.2086 105.2 91.5846 105.304C92.0566 105.432 92.4406 105.56 92.7366 105.688C93.0326 105.808 93.2846 105.992 93.4926 106.24C93.7086 106.488 93.8206 106.812 93.8286 107.212C93.8286 107.572 93.7286 107.896 93.5286 108.184C93.3286 108.472 93.0446 108.7 92.6766 108.868C92.3166 109.028 91.9006 109.108 91.4286 109.108ZM98.2981 109.108C97.7941 109.108 97.3421 109.024 96.9421 108.856C96.5421 108.68 96.2261 108.44 95.9941 108.136C95.7621 107.824 95.6341 107.468 95.6101 107.068H96.7381C96.7701 107.396 96.9221 107.664 97.1941 107.872C97.4741 108.08 97.8381 108.184 98.2861 108.184C98.7021 108.184 99.0301 108.092 99.2701 107.908C99.5101 107.724 99.6301 107.492 99.6301 107.212C99.6301 106.924 99.5021 106.712 99.2461 106.576C98.9901 106.432 98.5941 106.292 98.0581 106.156C97.5701 106.028 97.1701 105.9 96.8581 105.772C96.5541 105.636 96.2901 105.44 96.0661 105.184C95.8501 104.92 95.7421 104.576 95.7421 104.152C95.7421 103.816 95.8421 103.508 96.0421 103.228C96.2421 102.948 96.5261 102.728 96.8941 102.568C97.2621 102.4 97.6821 102.316 98.1541 102.316C98.8821 102.316 99.4701 102.5 99.9181 102.868C100.366 103.236 100.606 103.74 100.638 104.38H99.5461C99.5221 104.036 99.3821 103.76 99.1261 103.552C98.8781 103.344 98.5421 103.24 98.1181 103.24C97.7261 103.24 97.4141 103.324 97.1821 103.492C96.9501 103.66 96.8341 103.88 96.8341 104.152C96.8341 104.368 96.9021 104.548 97.0381 104.692C97.1821 104.828 97.3581 104.94 97.5661 105.028C97.7821 105.108 98.0781 105.2 98.4541 105.304C98.9261 105.432 99.3101 105.56 99.6061 105.688C99.9021 105.808 100.154 105.992 100.362 106.24C100.578 106.488 100.69 106.812 100.698 107.212C100.698 107.572 100.598 107.896 100.398 108.184C100.198 108.472 99.9141 108.7 99.5461 108.868C99.1861 109.028 98.7701 109.108 98.2981 109.108ZM103.404 101.356C103.196 101.356 103.02 101.284 102.876 101.14C102.732 100.996 102.66 100.82 102.66 100.612C102.66 100.404 102.732 100.228 102.876 100.084C103.02 99.94 103.196 99.868 103.404 99.868C103.604 99.868 103.772 99.94 103.908 100.084C104.052 100.228 104.124 100.404 104.124 100.612C104.124 100.82 104.052 100.996 103.908 101.14C103.772 101.284 103.604 101.356 103.404 101.356ZM103.932 102.424V109H102.84V102.424H103.932ZM105.985 105.688C105.985 105.016 106.121 104.428 106.393 103.924C106.665 103.412 107.037 103.016 107.509 102.736C107.989 102.456 108.521 102.316 109.105 102.316C109.681 102.316 110.181 102.44 110.605 102.688C111.029 102.936 111.345 103.248 111.553 103.624V102.424H112.657V109H111.553V107.776C111.337 108.16 111.013 108.48 110.581 108.736C110.157 108.984 109.661 109.108 109.093 109.108C108.509 109.108 107.981 108.964 107.509 108.676C107.037 108.388 106.665 107.984 106.393 107.464C106.121 106.944 105.985 106.352 105.985 105.688ZM111.553 105.7C111.553 105.204 111.453 104.772 111.253 104.404C111.053 104.036 110.781 103.756 110.437 103.564C110.101 103.364 109.729 103.264 109.321 103.264C108.913 103.264 108.541 103.36 108.205 103.552C107.869 103.744 107.601 104.024 107.401 104.392C107.201 104.76 107.101 105.192 107.101 105.688C107.101 106.192 107.201 106.632 107.401 107.008C107.601 107.376 107.869 107.66 108.205 107.86C108.541 108.052 108.913 108.148 109.321 108.148C109.729 108.148 110.101 108.052 110.437 107.86C110.781 107.66 111.053 107.376 111.253 107.008C111.453 106.632 111.553 106.196 111.553 105.7ZM118.306 102.304C119.106 102.304 119.754 102.548 120.25 103.036C120.746 103.516 120.994 104.212 120.994 105.124V109H119.914V105.28C119.914 104.624 119.75 104.124 119.422 103.78C119.094 103.428 118.646 103.252 118.078 103.252C117.502 103.252 117.042 103.432 116.698 103.792C116.362 104.152 116.194 104.676 116.194 105.364V109H115.102V102.424H116.194V103.36C116.41 103.024 116.702 102.764 117.07 102.58C117.446 102.396 117.858 102.304 118.306 102.304ZM126.769 104.812C126.769 103.996 126.953 103.264 127.321 102.616C127.689 101.96 128.189 101.448 128.821 101.08C129.461 100.712 130.169 100.528 130.945 100.528C131.857 100.528 132.653 100.748 133.333 101.188C134.013 101.628 134.509 102.252 134.821 103.06H133.513C133.281 102.556 132.945 102.168 132.505 101.896C132.073 101.624 131.553 101.488 130.945 101.488C130.361 101.488 129.837 101.624 129.373 101.896C128.909 102.168 128.545 102.556 128.281 103.06C128.017 103.556 127.885 104.14 127.885 104.812C127.885 105.476 128.017 106.06 128.281 106.564C128.545 107.06 128.909 107.444 129.373 107.716C129.837 107.988 130.361 108.124 130.945 108.124C131.553 108.124 132.073 107.992 132.505 107.728C132.945 107.456 133.281 107.068 133.513 106.564H134.821C134.509 107.364 134.013 107.984 133.333 108.424C132.653 108.856 131.857 109.072 130.945 109.072C130.169 109.072 129.461 108.892 128.821 108.532C128.189 108.164 127.689 107.656 127.321 107.008C126.953 106.36 126.769 105.628 126.769 104.812ZM136.735 108.124C137.751 107.308 138.547 106.64 139.123 106.12C139.699 105.592 140.183 105.044 140.575 104.476C140.975 103.9 141.175 103.336 141.175 102.784C141.175 102.264 141.047 101.856 140.791 101.56C140.543 101.256 140.139 101.104 139.579 101.104C139.035 101.104 138.611 101.276 138.307 101.62C138.011 101.956 137.851 102.408 137.827 102.976H136.771C136.803 102.08 137.075 101.388 137.587 100.9C138.099 100.412 138.759 100.168 139.567 100.168C140.391 100.168 141.043 100.396 141.523 100.852C142.011 101.308 142.255 101.936 142.255 102.736C142.255 103.4 142.055 104.048 141.655 104.68C141.263 105.304 140.815 105.856 140.311 106.336C139.807 106.808 139.163 107.36 138.379 107.992H142.507V108.904H136.735V108.124Z" fill="#F5F8FF"/>
<defs>
<radialGradient id="paint0_radial_0_87" cx="0" cy="0" r="1" gradientUnits="userSpaceOnUse" gradientTransform="translate(224.677 -14.3539) rotate(142.906) scale(286.566 366.341)">
<stop stop-color="#212225"/>
<stop offset="1" stop-color="#1F2025"/>
</radialGradient>
<radialGradient id="paint1_radial_0_87" cx="0" cy="0" r="1" gradientUnits="userSpaceOnUse" gradientTransform="translate(43.0604 30.8796) rotate(126.005) scale(20.1121 25.4155)">
<stop stop-color="#212225"/>
<stop offset="1" stop-color="#1F2025"/>
</radialGradient>
<radialGradient id="paint2_radial_0_87" cx="0" cy="0" r="1" gradientUnits="userSpaceOnUse" gradientTransform="translate(48.266 37.1901) rotate(123.595) scale(14.2212 17.4175)">
<stop stop-color="#212225"/>
<stop offset="1" stop-color="#1F2025"/>
</radialGradient>
</defs>
</svg>
