<svg width="74" height="74" viewBox="0 0 74 74" fill="none" xmlns="http://www.w3.org/2000/svg">
<path d="M6.79456 4.20456H4.20456V6.79456H6.79456V4.20456Z" fill="#F5F8FF"/>
<path d="M9.31728 4.20456H6.72728V6.79456H9.31728V4.20456Z" fill="#F5F8FF"/>
<path d="M11.84 4.20456H9.25V6.79456H11.84V4.20456Z" fill="#F5F8FF"/>
<path d="M15.2036 4.20456H12.6136V6.79456H15.2036V4.20456Z" fill="#F5F8FF"/>
<path d="M17.7264 4.20456H15.1364V6.79456H17.7264V4.20456Z" fill="#F5F8FF"/>
<path d="M20.2491 4.20456H17.6591V6.79456H20.2491V4.20456Z" fill="#F5F8FF"/>
<path d="M22.7718 4.20456H20.1818V6.79456H22.7718V4.20456Z" fill="#F5F8FF"/>
<path d="M30.34 4.20456H27.75V6.79456H30.34V4.20456Z" fill="#F5F8FF"/>
<path d="M37.9082 4.20456H35.3182V6.79456H37.9082V4.20456Z" fill="#F5F8FF"/>
<path d="M42.9537 4.20456H40.3636V6.79456H42.9537V4.20456Z" fill="#F5F8FF"/>
<path d="M45.4764 4.20456H42.8864V6.79456H45.4764V4.20456Z" fill="#F5F8FF"/>
<path d="M53.8855 4.20456H51.2955V6.79456H53.8855V4.20456Z" fill="#F5F8FF"/>
<path d="M56.4082 4.20456H53.8182V6.79456H56.4082V4.20456Z" fill="#F5F8FF"/>
<path d="M58.9309 4.20456H56.3409V6.79456H58.9309V4.20456Z" fill="#F5F8FF"/>
<path d="M61.4536 4.20456H58.8636V6.79456H61.4536V4.20456Z" fill="#F5F8FF"/>
<path d="M63.9764 4.20456H61.3864V6.79456H63.9764V4.20456Z" fill="#F5F8FF"/>
<path d="M66.4991 4.20456H63.9091V6.79456H66.4991V4.20456Z" fill="#F5F8FF"/>
<path d="M69.0218 4.20456H66.4318V6.79456H69.0218V4.20456Z" fill="#F5F8FF"/>
<path d="M6.79456 6.72729H4.20456V9.3173H6.79456V6.72729Z" fill="#F5F8FF"/>
<path d="M22.7718 6.72729H20.1818V9.3173H22.7718V6.72729Z" fill="#F5F8FF"/>
<path d="M27.8173 6.72729H25.2273V9.3173H27.8173V6.72729Z" fill="#F5F8FF"/>
<path d="M35.3854 6.72729H32.7955V9.3173H35.3854V6.72729Z" fill="#F5F8FF"/>
<path d="M37.9082 6.72729H35.3182V9.3173H37.9082V6.72729Z" fill="#F5F8FF"/>
<path d="M40.4309 6.72729H37.8409V9.3173H40.4309V6.72729Z" fill="#F5F8FF"/>
<path d="M45.4764 6.72729H42.8864V9.3173H45.4764V6.72729Z" fill="#F5F8FF"/>
<path d="M48.84 6.72729H46.25V9.3173H48.84V6.72729Z" fill="#F5F8FF"/>
<path d="M53.8855 6.72729H51.2955V9.3173H53.8855V6.72729Z" fill="#F5F8FF"/>
<path d="M69.0218 6.72729H66.4318V9.3173H69.0218V6.72729Z" fill="#F5F8FF"/>
<path d="M6.79456 9.25H4.20456V11.84H6.79456V9.25Z" fill="#F5F8FF"/>
<path d="M11.84 9.25H9.25V11.84H11.84V9.25Z" fill="#F5F8FF"/>
<path d="M15.2036 9.25H12.6136V11.84H15.2036V9.25Z" fill="#F5F8FF"/>
<path d="M17.7264 9.25H15.1364V11.84H17.7264V9.25Z" fill="#F5F8FF"/>
<path d="M22.7718 9.25H20.1818V11.84H22.7718V9.25Z" fill="#F5F8FF"/>
<path d="M27.8173 9.25H25.2273V11.84H27.8173V9.25Z" fill="#F5F8FF"/>
<path d="M30.34 9.25H27.75V11.84H30.34V9.25Z" fill="#F5F8FF"/>
<path d="M32.8627 9.25H30.2727V11.84H32.8627V9.25Z" fill="#F5F8FF"/>
<path d="M35.3854 9.25H32.7955V11.84H35.3854V9.25Z" fill="#F5F8FF"/>
<path d="M37.9082 9.25H35.3182V11.84H37.9082V9.25Z" fill="#F5F8FF"/>
<path d="M42.9537 9.25H40.3636V11.84H42.9537V9.25Z" fill="#F5F8FF"/>
<path d="M45.4764 9.25H42.8864V11.84H45.4764V9.25Z" fill="#F5F8FF"/>
<path d="M53.8855 9.25H51.2955V11.84H53.8855V9.25Z" fill="#F5F8FF"/>
<path d="M58.9309 9.25H56.3409V11.84H58.9309V9.25Z" fill="#F5F8FF"/>
<path d="M61.4536 9.25H58.8636V11.84H61.4536V9.25Z" fill="#F5F8FF"/>
<path d="M63.9764 9.25H61.3864V11.84H63.9764V9.25Z" fill="#F5F8FF"/>
<path d="M69.0218 9.25H66.4318V11.84H69.0218V9.25Z" fill="#F5F8FF"/>
<path d="M6.79456 12.6136H4.20456V15.2036H6.79456V12.6136Z" fill="#F5F8FF"/>
<path d="M11.84 12.6136H9.25V15.2036H11.84V12.6136Z" fill="#F5F8FF"/>
<path d="M15.2036 12.6136H12.6136V15.2036H15.2036V12.6136Z" fill="#F5F8FF"/>
<path d="M17.7264 12.6136H15.1364V15.2036H17.7264V12.6136Z" fill="#F5F8FF"/>
<path d="M22.7718 12.6136H20.1818V15.2036H22.7718V12.6136Z" fill="#F5F8FF"/>
<path d="M30.34 12.6136H27.75V15.2036H30.34V12.6136Z" fill="#F5F8FF"/>
<path d="M32.8627 12.6136H30.2727V15.2036H32.8627V12.6136Z" fill="#F5F8FF"/>
<path d="M35.3854 12.6136H32.7955V15.2036H35.3854V12.6136Z" fill="#F5F8FF"/>
<path d="M42.9537 12.6136H40.3636V15.2036H42.9537V12.6136Z" fill="#F5F8FF"/>
<path d="M53.8855 12.6136H51.2955V15.2036H53.8855V12.6136Z" fill="#F5F8FF"/>
<path d="M58.9309 12.6136H56.3409V15.2036H58.9309V12.6136Z" fill="#F5F8FF"/>
<path d="M61.4536 12.6136H58.8636V15.2036H61.4536V12.6136Z" fill="#F5F8FF"/>
<path d="M63.9764 12.6136H61.3864V15.2036H63.9764V12.6136Z" fill="#F5F8FF"/>
<path d="M69.0218 12.6136H66.4318V15.2036H69.0218V12.6136Z" fill="#F5F8FF"/>
<path d="M6.79456 15.1364H4.20456V17.7264H6.79456V15.1364Z" fill="#F5F8FF"/>
<path d="M11.84 15.1364H9.25V17.7264H11.84V15.1364Z" fill="#F5F8FF"/>
<path d="M15.2036 15.1364H12.6136V17.7264H15.2036V15.1364Z" fill="#F5F8FF"/>
<path d="M17.7264 15.1364H15.1364V17.7264H17.7264V15.1364Z" fill="#F5F8FF"/>
<path d="M22.7718 15.1364H20.1818V17.7264H22.7718V15.1364Z" fill="#F5F8FF"/>
<path d="M27.8173 15.1364H25.2273V17.7264H27.8173V15.1364Z" fill="#F5F8FF"/>
<path d="M42.9537 15.1364H40.3636V17.7264H42.9537V15.1364Z" fill="#F5F8FF"/>
<path d="M45.4764 15.1364H42.8864V17.7264H45.4764V15.1364Z" fill="#F5F8FF"/>
<path d="M53.8855 15.1364H51.2955V17.7264H53.8855V15.1364Z" fill="#F5F8FF"/>
<path d="M58.9309 15.1364H56.3409V17.7264H58.9309V15.1364Z" fill="#F5F8FF"/>
<path d="M61.4536 15.1364H58.8636V17.7264H61.4536V15.1364Z" fill="#F5F8FF"/>
<path d="M63.9764 15.1364H61.3864V17.7264H63.9764V15.1364Z" fill="#F5F8FF"/>
<path d="M69.0218 15.1364H66.4318V17.7264H69.0218V15.1364Z" fill="#F5F8FF"/>
<path d="M6.79456 17.6591H4.20456V20.2491H6.79456V17.6591Z" fill="#F5F8FF"/>
<path d="M22.7718 17.6591H20.1818V20.2491H22.7718V17.6591Z" fill="#F5F8FF"/>
<path d="M27.8173 17.6591H25.2273V20.2491H27.8173V17.6591Z" fill="#F5F8FF"/>
<path d="M30.34 17.6591H27.75V20.2491H30.34V17.6591Z" fill="#F5F8FF"/>
<path d="M35.3854 17.6591H32.7955V20.2491H35.3854V17.6591Z" fill="#F5F8FF"/>
<path d="M45.4764 17.6591H42.8864V20.2491H45.4764V17.6591Z" fill="#F5F8FF"/>
<path d="M48.84 17.6591H46.25V20.2491H48.84V17.6591Z" fill="#F5F8FF"/>
<path d="M53.8855 17.6591H51.2955V20.2491H53.8855V17.6591Z" fill="#F5F8FF"/>
<path d="M69.0218 17.6591H66.4318V20.2491H69.0218V17.6591Z" fill="#F5F8FF"/>
<path d="M6.79456 20.1819H4.20456V22.7718H6.79456V20.1819Z" fill="#F5F8FF"/>
<path d="M9.31728 20.1819H6.72728V22.7718H9.31728V20.1819Z" fill="#F5F8FF"/>
<path d="M11.84 20.1819H9.25V22.7718H11.84V20.1819Z" fill="#F5F8FF"/>
<path d="M15.2036 20.1819H12.6136V22.7718H15.2036V20.1819Z" fill="#F5F8FF"/>
<path d="M17.7264 20.1819H15.1364V22.7718H17.7264V20.1819Z" fill="#F5F8FF"/>
<path d="M20.2491 20.1819H17.6591V22.7718H20.2491V20.1819Z" fill="#F5F8FF"/>
<path d="M22.7718 20.1819H20.1818V22.7718H22.7718V20.1819Z" fill="#F5F8FF"/>
<path d="M27.8173 20.1819H25.2273V22.7718H27.8173V20.1819Z" fill="#F5F8FF"/>
<path d="M32.8627 20.1819H30.2727V22.7718H32.8627V20.1819Z" fill="#F5F8FF"/>
<path d="M37.9082 20.1819H35.3182V22.7718H37.9082V20.1819Z" fill="#F5F8FF"/>
<path d="M42.9537 20.1819H40.3636V22.7718H42.9537V20.1819Z" fill="#F5F8FF"/>
<path d="M48.84 20.1819H46.25V22.7718H48.84V20.1819Z" fill="#F5F8FF"/>
<path d="M53.8855 20.1819H51.2955V22.7718H53.8855V20.1819Z" fill="#F5F8FF"/>
<path d="M56.4082 20.1819H53.8182V22.7718H56.4082V20.1819Z" fill="#F5F8FF"/>
<path d="M58.9309 20.1819H56.3409V22.7718H58.9309V20.1819Z" fill="#F5F8FF"/>
<path d="M61.4536 20.1819H58.8636V22.7718H61.4536V20.1819Z" fill="#F5F8FF"/>
<path d="M63.9764 20.1819H61.3864V22.7718H63.9764V20.1819Z" fill="#F5F8FF"/>
<path d="M66.4991 20.1819H63.9091V22.7718H66.4991V20.1819Z" fill="#F5F8FF"/>
<path d="M69.0218 20.1819H66.4318V22.7718H69.0218V20.1819Z" fill="#F5F8FF"/>
<path d="M27.8173 22.7046H25.2273V25.2946H27.8173V22.7046Z" fill="#F5F8FF"/>
<path d="M30.34 22.7046H27.75V25.2946H30.34V22.7046Z" fill="#F5F8FF"/>
<path d="M37.9082 22.7046H35.3182V25.2946H37.9082V22.7046Z" fill="#F5F8FF"/>
<path d="M42.9537 22.7046H40.3636V25.2946H42.9537V22.7046Z" fill="#F5F8FF"/>
<path d="M45.4764 22.7046H42.8864V25.2946H45.4764V22.7046Z" fill="#F5F8FF"/>
<path d="M6.79456 25.2273H4.20456V27.8173H6.79456V25.2273Z" fill="#F5F8FF"/>
<path d="M9.31728 25.2273H6.72728V27.8173H9.31728V25.2273Z" fill="#F5F8FF"/>
<path d="M15.2036 25.2273H12.6136V27.8173H15.2036V25.2273Z" fill="#F5F8FF"/>
<path d="M22.7718 25.2273H20.1818V27.8173H22.7718V25.2273Z" fill="#F5F8FF"/>
<path d="M25.2946 25.2273H22.7045V27.8173H25.2946V25.2273Z" fill="#F5F8FF"/>
<path d="M32.8627 25.2273H30.2727V27.8173H32.8627V25.2273Z" fill="#F5F8FF"/>
<path d="M37.9082 25.2273H35.3182V27.8173H37.9082V25.2273Z" fill="#F5F8FF"/>
<path d="M40.4309 25.2273H37.8409V27.8173H40.4309V25.2273Z" fill="#F5F8FF"/>
<path d="M42.9537 25.2273H40.3636V27.8173H42.9537V25.2273Z" fill="#F5F8FF"/>
<path d="M48.84 25.2273H46.25V27.8173H48.84V25.2273Z" fill="#F5F8FF"/>
<path d="M53.8855 25.2273H51.2955V27.8173H53.8855V25.2273Z" fill="#F5F8FF"/>
<path d="M56.4082 25.2273H53.8182V27.8173H56.4082V25.2273Z" fill="#F5F8FF"/>
<path d="M58.9309 25.2273H56.3409V27.8173H58.9309V25.2273Z" fill="#F5F8FF"/>
<path d="M63.9764 25.2273H61.3864V27.8173H63.9764V25.2273Z" fill="#F5F8FF"/>
<path d="M66.4991 25.2273H63.9091V27.8173H66.4991V25.2273Z" fill="#F5F8FF"/>
<path d="M6.79456 27.75H4.20456V30.34H6.79456V27.75Z" fill="#F5F8FF"/>
<path d="M15.2036 27.75H12.6136V30.34H15.2036V27.75Z" fill="#F5F8FF"/>
<path d="M20.2491 27.75H17.6591V30.34H20.2491V27.75Z" fill="#F5F8FF"/>
<path d="M25.2946 27.75H22.7045V30.34H25.2946V27.75Z" fill="#F5F8FF"/>
<path d="M32.8627 27.75H30.2727V30.34H32.8627V27.75Z" fill="#F5F8FF"/>
<path d="M35.3854 27.75H32.7955V30.34H35.3854V27.75Z" fill="#F5F8FF"/>
<path d="M48.84 27.75H46.25V30.34H48.84V27.75Z" fill="#F5F8FF"/>
<path d="M53.8855 27.75H51.2955V30.34H53.8855V27.75Z" fill="#F5F8FF"/>
<path d="M69.0218 27.75H66.4318V30.34H69.0218V27.75Z" fill="#F5F8FF"/>
<path d="M15.2036 30.2727H12.6136V32.8627H15.2036V30.2727Z" fill="#F5F8FF"/>
<path d="M22.7718 30.2727H20.1818V32.8627H22.7718V30.2727Z" fill="#F5F8FF"/>
<path d="M25.2946 30.2727H22.7045V32.8627H25.2946V30.2727Z" fill="#F5F8FF"/>
<path d="M30.34 30.2727H27.75V32.8627H30.34V30.2727Z" fill="#F5F8FF"/>
<path d="M32.8627 30.2727H30.2727V32.8627H32.8627V30.2727Z" fill="#F5F8FF"/>
<path d="M40.4309 30.2727H37.8409V32.8627H40.4309V30.2727Z" fill="#F5F8FF"/>
<path d="M53.8855 30.2727H51.2955V32.8627H53.8855V30.2727Z" fill="#F5F8FF"/>
<path d="M56.4082 30.2727H53.8182V32.8627H56.4082V30.2727Z" fill="#F5F8FF"/>
<path d="M58.9309 30.2727H56.3409V32.8627H58.9309V30.2727Z" fill="#F5F8FF"/>
<path d="M66.4991 30.2727H63.9091V32.8627H66.4991V30.2727Z" fill="#F5F8FF"/>
<path d="M69.0218 30.2727H66.4318V32.8627H69.0218V30.2727Z" fill="#F5F8FF"/>
<path d="M6.79456 32.7954H4.20456V35.3854H6.79456V32.7954Z" fill="#F5F8FF"/>
<path d="M17.7264 32.7954H15.1364V35.3854H17.7264V32.7954Z" fill="#F5F8FF"/>
<path d="M20.2491 32.7954H17.6591V35.3854H20.2491V32.7954Z" fill="#F5F8FF"/>
<path d="M37.9082 32.7954H35.3182V35.3854H37.9082V32.7954Z" fill="#F5F8FF"/>
<path d="M40.4309 32.7954H37.8409V35.3854H40.4309V32.7954Z" fill="#F5F8FF"/>
<path d="M45.4764 32.7954H42.8864V35.3854H45.4764V32.7954Z" fill="#F5F8FF"/>
<path d="M48.84 32.7954H46.25V35.3854H48.84V32.7954Z" fill="#F5F8FF"/>
<path d="M53.8855 32.7954H51.2955V35.3854H53.8855V32.7954Z" fill="#F5F8FF"/>
<path d="M58.9309 32.7954H56.3409V35.3854H58.9309V32.7954Z" fill="#F5F8FF"/>
<path d="M9.31728 35.3181H6.72728V37.9081H9.31728V35.3181Z" fill="#F5F8FF"/>
<path d="M11.84 35.3181H9.25V37.9081H11.84V35.3181Z" fill="#F5F8FF"/>
<path d="M15.2036 35.3181H12.6136V37.9081H15.2036V35.3181Z" fill="#F5F8FF"/>
<path d="M17.7264 35.3181H15.1364V37.9081H17.7264V35.3181Z" fill="#F5F8FF"/>
<path d="M22.7718 35.3181H20.1818V37.9081H22.7718V35.3181Z" fill="#F5F8FF"/>
<path d="M25.2946 35.3181H22.7045V37.9081H25.2946V35.3181Z" fill="#F5F8FF"/>
<path d="M37.9082 35.3181H35.3182V37.9081H37.9082V35.3181Z" fill="#F5F8FF"/>
<path d="M40.4309 35.3181H37.8409V37.9081H40.4309V35.3181Z" fill="#F5F8FF"/>
<path d="M42.9537 35.3181H40.3636V37.9081H42.9537V35.3181Z" fill="#F5F8FF"/>
<path d="M45.4764 35.3181H42.8864V37.9081H45.4764V35.3181Z" fill="#F5F8FF"/>
<path d="M48.84 35.3181H46.25V37.9081H48.84V35.3181Z" fill="#F5F8FF"/>
<path d="M51.3627 35.3181H48.7727V37.9081H51.3627V35.3181Z" fill="#F5F8FF"/>
<path d="M53.8855 35.3181H51.2955V37.9081H53.8855V35.3181Z" fill="#F5F8FF"/>
<path d="M61.4536 35.3181H58.8636V37.9081H61.4536V35.3181Z" fill="#F5F8FF"/>
<path d="M66.4991 35.3181H63.9091V37.9081H66.4991V35.3181Z" fill="#F5F8FF"/>
<path d="M69.0218 35.3181H66.4318V37.9081H69.0218V35.3181Z" fill="#F5F8FF"/>
<path d="M25.2946 37.8409H22.7045V40.4309H25.2946V37.8409Z" fill="#F5F8FF"/>
<path d="M27.8173 37.8409H25.2273V40.4309H27.8173V37.8409Z" fill="#F5F8FF"/>
<path d="M32.8627 37.8409H30.2727V40.4309H32.8627V37.8409Z" fill="#F5F8FF"/>
<path d="M37.9082 37.8409H35.3182V40.4309H37.9082V37.8409Z" fill="#F5F8FF"/>
<path d="M40.4309 37.8409H37.8409V40.4309H40.4309V37.8409Z" fill="#F5F8FF"/>
<path d="M51.3627 37.8409H48.7727V40.4309H51.3627V37.8409Z" fill="#F5F8FF"/>
<path d="M53.8855 37.8409H51.2955V40.4309H53.8855V37.8409Z" fill="#F5F8FF"/>
<path d="M56.4082 37.8409H53.8182V40.4309H56.4082V37.8409Z" fill="#F5F8FF"/>
<path d="M61.4536 37.8409H58.8636V40.4309H61.4536V37.8409Z" fill="#F5F8FF"/>
<path d="M63.9764 37.8409H61.3864V40.4309H63.9764V37.8409Z" fill="#F5F8FF"/>
<path d="M69.0218 37.8409H66.4318V40.4309H69.0218V37.8409Z" fill="#F5F8FF"/>
<path d="M6.79456 40.3636H4.20456V42.9536H6.79456V40.3636Z" fill="#F5F8FF"/>
<path d="M11.84 40.3636H9.25V42.9536H11.84V40.3636Z" fill="#F5F8FF"/>
<path d="M22.7718 40.3636H20.1818V42.9536H22.7718V40.3636Z" fill="#F5F8FF"/>
<path d="M27.8173 40.3636H25.2273V42.9536H27.8173V40.3636Z" fill="#F5F8FF"/>
<path d="M30.34 40.3636H27.75V42.9536H30.34V40.3636Z" fill="#F5F8FF"/>
<path d="M35.3854 40.3636H32.7955V42.9536H35.3854V40.3636Z" fill="#F5F8FF"/>
<path d="M37.9082 40.3636H35.3182V42.9536H37.9082V40.3636Z" fill="#F5F8FF"/>
<path d="M40.4309 40.3636H37.8409V42.9536H40.4309V40.3636Z" fill="#F5F8FF"/>
<path d="M42.9537 40.3636H40.3636V42.9536H42.9537V40.3636Z" fill="#F5F8FF"/>
<path d="M48.84 40.3636H46.25V42.9536H48.84V40.3636Z" fill="#F5F8FF"/>
<path d="M51.3627 40.3636H48.7727V42.9536H51.3627V40.3636Z" fill="#F5F8FF"/>
<path d="M56.4082 40.3636H53.8182V42.9536H56.4082V40.3636Z" fill="#F5F8FF"/>
<path d="M58.9309 40.3636H56.3409V42.9536H58.9309V40.3636Z" fill="#F5F8FF"/>
<path d="M63.9764 40.3636H61.3864V42.9536H63.9764V40.3636Z" fill="#F5F8FF"/>
<path d="M69.0218 40.3636H66.4318V42.9536H69.0218V40.3636Z" fill="#F5F8FF"/>
<path d="M9.31728 42.8864H6.72728V45.4764H9.31728V42.8864Z" fill="#F5F8FF"/>
<path d="M15.2036 42.8864H12.6136V45.4764H15.2036V42.8864Z" fill="#F5F8FF"/>
<path d="M20.2491 42.8864H17.6591V45.4764H20.2491V42.8864Z" fill="#F5F8FF"/>
<path d="M25.2946 42.8864H22.7045V45.4764H25.2946V42.8864Z" fill="#F5F8FF"/>
<path d="M27.8173 42.8864H25.2273V45.4764H27.8173V42.8864Z" fill="#F5F8FF"/>
<path d="M40.4309 42.8864H37.8409V45.4764H40.4309V42.8864Z" fill="#F5F8FF"/>
<path d="M42.9537 42.8864H40.3636V45.4764H42.9537V42.8864Z" fill="#F5F8FF"/>
<path d="M58.9309 42.8864H56.3409V45.4764H58.9309V42.8864Z" fill="#F5F8FF"/>
<path d="M66.4991 42.8864H63.9091V45.4764H66.4991V42.8864Z" fill="#F5F8FF"/>
<path d="M6.79456 46.25H4.20456V48.84H6.79456V46.25Z" fill="#F5F8FF"/>
<path d="M9.31728 46.25H6.72728V48.84H9.31728V46.25Z" fill="#F5F8FF"/>
<path d="M15.2036 46.25H12.6136V48.84H15.2036V46.25Z" fill="#F5F8FF"/>
<path d="M17.7264 46.25H15.1364V48.84H17.7264V46.25Z" fill="#F5F8FF"/>
<path d="M22.7718 46.25H20.1818V48.84H22.7718V46.25Z" fill="#F5F8FF"/>
<path d="M30.34 46.25H27.75V48.84H30.34V46.25Z" fill="#F5F8FF"/>
<path d="M32.8627 46.25H30.2727V48.84H32.8627V46.25Z" fill="#F5F8FF"/>
<path d="M37.9082 46.25H35.3182V48.84H37.9082V46.25Z" fill="#F5F8FF"/>
<path d="M48.84 46.25H46.25V48.84H48.84V46.25Z" fill="#F5F8FF"/>
<path d="M51.3627 46.25H48.7727V48.84H51.3627V46.25Z" fill="#F5F8FF"/>
<path d="M53.8855 46.25H51.2955V48.84H53.8855V46.25Z" fill="#F5F8FF"/>
<path d="M56.4082 46.25H53.8182V48.84H56.4082V46.25Z" fill="#F5F8FF"/>
<path d="M58.9309 46.25H56.3409V48.84H58.9309V46.25Z" fill="#F5F8FF"/>
<path d="M61.4536 46.25H58.8636V48.84H61.4536V46.25Z" fill="#F5F8FF"/>
<path d="M63.9764 46.25H61.3864V48.84H63.9764V46.25Z" fill="#F5F8FF"/>
<path d="M27.8173 48.7727H25.2273V51.3627H27.8173V48.7727Z" fill="#F5F8FF"/>
<path d="M30.34 48.7727H27.75V51.3627H30.34V48.7727Z" fill="#F5F8FF"/>
<path d="M32.8627 48.7727H30.2727V51.3627H32.8627V48.7727Z" fill="#F5F8FF"/>
<path d="M35.3854 48.7727H32.7955V51.3627H35.3854V48.7727Z" fill="#F5F8FF"/>
<path d="M37.9082 48.7727H35.3182V51.3627H37.9082V48.7727Z" fill="#F5F8FF"/>
<path d="M40.4309 48.7727H37.8409V51.3627H40.4309V48.7727Z" fill="#F5F8FF"/>
<path d="M45.4764 48.7727H42.8864V51.3627H45.4764V48.7727Z" fill="#F5F8FF"/>
<path d="M48.84 48.7727H46.25V51.3627H48.84V48.7727Z" fill="#F5F8FF"/>
<path d="M58.9309 48.7727H56.3409V51.3627H58.9309V48.7727Z" fill="#F5F8FF"/>
<path d="M61.4536 48.7727H58.8636V51.3627H61.4536V48.7727Z" fill="#F5F8FF"/>
<path d="M69.0218 48.7727H66.4318V51.3627H69.0218V48.7727Z" fill="#F5F8FF"/>
<path d="M6.79456 51.2954H4.20456V53.8854H6.79456V51.2954Z" fill="#F5F8FF"/>
<path d="M9.31728 51.2954H6.72728V53.8854H9.31728V51.2954Z" fill="#F5F8FF"/>
<path d="M11.84 51.2954H9.25V53.8854H11.84V51.2954Z" fill="#F5F8FF"/>
<path d="M15.2036 51.2954H12.6136V53.8854H15.2036V51.2954Z" fill="#F5F8FF"/>
<path d="M17.7264 51.2954H15.1364V53.8854H17.7264V51.2954Z" fill="#F5F8FF"/>
<path d="M20.2491 51.2954H17.6591V53.8854H20.2491V51.2954Z" fill="#F5F8FF"/>
<path d="M22.7718 51.2954H20.1818V53.8854H22.7718V51.2954Z" fill="#F5F8FF"/>
<path d="M27.8173 51.2954H25.2273V53.8854H27.8173V51.2954Z" fill="#F5F8FF"/>
<path d="M30.34 51.2954H27.75V53.8854H30.34V51.2954Z" fill="#F5F8FF"/>
<path d="M37.9082 51.2954H35.3182V53.8854H37.9082V51.2954Z" fill="#F5F8FF"/>
<path d="M42.9537 51.2954H40.3636V53.8854H42.9537V51.2954Z" fill="#F5F8FF"/>
<path d="M45.4764 51.2954H42.8864V53.8854H45.4764V51.2954Z" fill="#F5F8FF"/>
<path d="M48.84 51.2954H46.25V53.8854H48.84V51.2954Z" fill="#F5F8FF"/>
<path d="M53.8855 51.2954H51.2955V53.8854H53.8855V51.2954Z" fill="#F5F8FF"/>
<path d="M58.9309 51.2954H56.3409V53.8854H58.9309V51.2954Z" fill="#F5F8FF"/>
<path d="M61.4536 51.2954H58.8636V53.8854H61.4536V51.2954Z" fill="#F5F8FF"/>
<path d="M66.4991 51.2954H63.9091V53.8854H66.4991V51.2954Z" fill="#F5F8FF"/>
<path d="M69.0218 51.2954H66.4318V53.8854H69.0218V51.2954Z" fill="#F5F8FF"/>
<path d="M6.79456 53.8182H4.20456V56.4082H6.79456V53.8182Z" fill="#F5F8FF"/>
<path d="M22.7718 53.8182H20.1818V56.4082H22.7718V53.8182Z" fill="#F5F8FF"/>
<path d="M30.34 53.8182H27.75V56.4082H30.34V53.8182Z" fill="#F5F8FF"/>
<path d="M35.3854 53.8182H32.7955V56.4082H35.3854V53.8182Z" fill="#F5F8FF"/>
<path d="M48.84 53.8182H46.25V56.4082H48.84V53.8182Z" fill="#F5F8FF"/>
<path d="M58.9309 53.8182H56.3409V56.4082H58.9309V53.8182Z" fill="#F5F8FF"/>
<path d="M61.4536 53.8182H58.8636V56.4082H61.4536V53.8182Z" fill="#F5F8FF"/>
<path d="M63.9764 53.8182H61.3864V56.4082H63.9764V53.8182Z" fill="#F5F8FF"/>
<path d="M69.0218 53.8182H66.4318V56.4082H69.0218V53.8182Z" fill="#F5F8FF"/>
<path d="M6.79456 56.3409H4.20456V58.9309H6.79456V56.3409Z" fill="#F5F8FF"/>
<path d="M11.84 56.3409H9.25V58.9309H11.84V56.3409Z" fill="#F5F8FF"/>
<path d="M15.2036 56.3409H12.6136V58.9309H15.2036V56.3409Z" fill="#F5F8FF"/>
<path d="M17.7264 56.3409H15.1364V58.9309H17.7264V56.3409Z" fill="#F5F8FF"/>
<path d="M22.7718 56.3409H20.1818V58.9309H22.7718V56.3409Z" fill="#F5F8FF"/>
<path d="M32.8627 56.3409H30.2727V58.9309H32.8627V56.3409Z" fill="#F5F8FF"/>
<path d="M37.9082 56.3409H35.3182V58.9309H37.9082V56.3409Z" fill="#F5F8FF"/>
<path d="M40.4309 56.3409H37.8409V58.9309H40.4309V56.3409Z" fill="#F5F8FF"/>
<path d="M42.9537 56.3409H40.3636V58.9309H42.9537V56.3409Z" fill="#F5F8FF"/>
<path d="M48.84 56.3409H46.25V58.9309H48.84V56.3409Z" fill="#F5F8FF"/>
<path d="M51.3627 56.3409H48.7727V58.9309H51.3627V56.3409Z" fill="#F5F8FF"/>
<path d="M53.8855 56.3409H51.2955V58.9309H53.8855V56.3409Z" fill="#F5F8FF"/>
<path d="M56.4082 56.3409H53.8182V58.9309H56.4082V56.3409Z" fill="#F5F8FF"/>
<path d="M58.9309 56.3409H56.3409V58.9309H58.9309V56.3409Z" fill="#F5F8FF"/>
<path d="M61.4536 56.3409H58.8636V58.9309H61.4536V56.3409Z" fill="#F5F8FF"/>
<path d="M66.4991 56.3409H63.9091V58.9309H66.4991V56.3409Z" fill="#F5F8FF"/>
<path d="M6.79456 58.8636H4.20456V61.4536H6.79456V58.8636Z" fill="#F5F8FF"/>
<path d="M11.84 58.8636H9.25V61.4536H11.84V58.8636Z" fill="#F5F8FF"/>
<path d="M15.2036 58.8636H12.6136V61.4536H15.2036V58.8636Z" fill="#F5F8FF"/>
<path d="M17.7264 58.8636H15.1364V61.4536H17.7264V58.8636Z" fill="#F5F8FF"/>
<path d="M22.7718 58.8636H20.1818V61.4536H22.7718V58.8636Z" fill="#F5F8FF"/>
<path d="M27.8173 58.8636H25.2273V61.4536H27.8173V58.8636Z" fill="#F5F8FF"/>
<path d="M37.9082 58.8636H35.3182V61.4536H37.9082V58.8636Z" fill="#F5F8FF"/>
<path d="M40.4309 58.8636H37.8409V61.4536H40.4309V58.8636Z" fill="#F5F8FF"/>
<path d="M45.4764 58.8636H42.8864V61.4536H45.4764V58.8636Z" fill="#F5F8FF"/>
<path d="M48.84 58.8636H46.25V61.4536H48.84V58.8636Z" fill="#F5F8FF"/>
<path d="M56.4082 58.8636H53.8182V61.4536H56.4082V58.8636Z" fill="#F5F8FF"/>
<path d="M58.9309 58.8636H56.3409V61.4536H58.9309V58.8636Z" fill="#F5F8FF"/>
<path d="M61.4536 58.8636H58.8636V61.4536H61.4536V58.8636Z" fill="#F5F8FF"/>
<path d="M63.9764 58.8636H61.3864V61.4536H63.9764V58.8636Z" fill="#F5F8FF"/>
<path d="M6.79456 61.3864H4.20456V63.9764H6.79456V61.3864Z" fill="#F5F8FF"/>
<path d="M11.84 61.3864H9.25V63.9764H11.84V61.3864Z" fill="#F5F8FF"/>
<path d="M15.2036 61.3864H12.6136V63.9764H15.2036V61.3864Z" fill="#F5F8FF"/>
<path d="M17.7264 61.3864H15.1364V63.9764H17.7264V61.3864Z" fill="#F5F8FF"/>
<path d="M22.7718 61.3864H20.1818V63.9764H22.7718V61.3864Z" fill="#F5F8FF"/>
<path d="M32.8627 61.3864H30.2727V63.9764H32.8627V61.3864Z" fill="#F5F8FF"/>
<path d="M40.4309 61.3864H37.8409V63.9764H40.4309V61.3864Z" fill="#F5F8FF"/>
<path d="M42.9537 61.3864H40.3636V63.9764H42.9537V61.3864Z" fill="#F5F8FF"/>
<path d="M56.4082 61.3864H53.8182V63.9764H56.4082V61.3864Z" fill="#F5F8FF"/>
<path d="M58.9309 61.3864H56.3409V63.9764H58.9309V61.3864Z" fill="#F5F8FF"/>
<path d="M63.9764 61.3864H61.3864V63.9764H63.9764V61.3864Z" fill="#F5F8FF"/>
<path d="M69.0218 61.3864H66.4318V63.9764H69.0218V61.3864Z" fill="#F5F8FF"/>
<path d="M6.79456 63.9091H4.20456V66.4991H6.79456V63.9091Z" fill="#F5F8FF"/>
<path d="M22.7718 63.9091H20.1818V66.4991H22.7718V63.9091Z" fill="#F5F8FF"/>
<path d="M27.8173 63.9091H25.2273V66.4991H27.8173V63.9091Z" fill="#F5F8FF"/>
<path d="M30.34 63.9091H27.75V66.4991H30.34V63.9091Z" fill="#F5F8FF"/>
<path d="M32.8627 63.9091H30.2727V66.4991H32.8627V63.9091Z" fill="#F5F8FF"/>
<path d="M35.3854 63.9091H32.7955V66.4991H35.3854V63.9091Z" fill="#F5F8FF"/>
<path d="M40.4309 63.9091H37.8409V66.4991H40.4309V63.9091Z" fill="#F5F8FF"/>
<path d="M45.4764 63.9091H42.8864V66.4991H45.4764V63.9091Z" fill="#F5F8FF"/>
<path d="M48.84 63.9091H46.25V66.4991H48.84V63.9091Z" fill="#F5F8FF"/>
<path d="M61.4536 63.9091H58.8636V66.4991H61.4536V63.9091Z" fill="#F5F8FF"/>
<path d="M6.79456 66.4318H4.20456V69.0219H6.79456V66.4318Z" fill="#F5F8FF"/>
<path d="M9.31728 66.4318H6.72728V69.0219H9.31728V66.4318Z" fill="#F5F8FF"/>
<path d="M11.84 66.4318H9.25V69.0219H11.84V66.4318Z" fill="#F5F8FF"/>
<path d="M15.2036 66.4318H12.6136V69.0219H15.2036V66.4318Z" fill="#F5F8FF"/>
<path d="M17.7264 66.4318H15.1364V69.0219H17.7264V66.4318Z" fill="#F5F8FF"/>
<path d="M20.2491 66.4318H17.6591V69.0219H20.2491V66.4318Z" fill="#F5F8FF"/>
<path d="M22.7718 66.4318H20.1818V69.0219H22.7718V66.4318Z" fill="#F5F8FF"/>
<path d="M27.8173 66.4318H25.2273V69.0219H27.8173V66.4318Z" fill="#F5F8FF"/>
<path d="M30.34 66.4318H27.75V69.0219H30.34V66.4318Z" fill="#F5F8FF"/>
<path d="M40.4309 66.4318H37.8409V69.0219H40.4309V66.4318Z" fill="#F5F8FF"/>
<path d="M45.4764 66.4318H42.8864V69.0219H45.4764V66.4318Z" fill="#F5F8FF"/>
<path d="M48.84 66.4318H46.25V69.0219H48.84V66.4318Z" fill="#F5F8FF"/>
<path d="M56.4082 66.4318H53.8182V69.0219H56.4082V66.4318Z" fill="#F5F8FF"/>
<path d="M66.4991 66.4318H63.9091V69.0219H66.4991V66.4318Z" fill="#F5F8FF"/>
<path d="M69.0218 66.4318H66.4318V69.0219H69.0218V66.4318Z" fill="#F5F8FF"/>
</svg>
